<svg xmlns="http://www.w3.org/2000/svg" viewBox="0 0 64 64" width="64" height="64">
  <defs><clipPath id="t"><rect width="64" height="64" rx="14"/></clipPath></defs>
  <g clip-path="url(#t)">
    <rect width="64" height="64" fill="#f4ecdd"/>
    <path d="M32 10 C20 10 9 19 9 32 C9 46 19 56 32 56 C45 56 55 46 55 32 C55 19 44 10 32 10 Z"
    fill="#9aa3b8"/>
    <circle cx="15" cy="16" r="7.5" fill="#9aa3b8"/>
    <circle cx="49" cy="16" r="7.5" fill="#9aa3b8"/>
    <circle cx="15" cy="16" r="3.6" fill="#5c6480"/>
    <circle cx="49" cy="16" r="3.6" fill="#5c6480"/>
    <circle cx="23" cy="33" r="8" fill="#241f35"/>
    <circle cx="41" cy="33" r="8" fill="#241f35"/>
    <circle cx="25.56" cy="30.28" r="2.4" fill="#ffffff"/>
    <circle cx="43.56" cy="30.28" r="2.4" fill="#ffffff"/>
    <path d="M32 44 L28 40 L36 40 Z" fill="#5c6480"/>
  </g>
</svg>
