<svg xmlns="http://www.w3.org/2000/svg" viewBox="0 0 64 64" width="64" height="64">
  <defs><clipPath id="t"><rect width="64" height="64" rx="14"/></clipPath></defs>
  <g clip-path="url(#t)">
    <rect width="64" height="64" fill="#241f35"/>
    <path d="M19 4 L22 16 L17 15 Z" fill="#d18b4a"/>
    <path d="M45 4 L42 16 L47 15 Z" fill="#d18b4a"/>
    <path d="M15 26 L21 8 L29 20 Z" fill="#d18b4a"/>
    <path d="M49 26 L43 8 L35 20 Z" fill="#d18b4a"/>
    <path d="M32 17 C43 17 51 25 51 35 C51 42 47 47 42 50 L48 54 L37 52
    C35 52.5 33.5 52.7 32 52.7 C30.5 52.7 29 52.5 27 52 L16 54 L22 50
    C17 47 13 42 13 35 C13 25 21 17 32 17 Z" fill="#d18b4a"/>
    <circle cx="24" cy="33" r="5.4" fill="#241f35"/>
    <circle cx="40" cy="33" r="5.4" fill="#241f35"/>
  </g>
</svg>
